<?xml version="1.0" encoding="UTF-8" standalone="no"?>
<svg
   version="1.1"
   width="12.388095mm"
   height="10.35mm"
   viewBox="-2439 -2011 4877 4074"
   id="svg178"
   sodipodi:docname="CP_Elec_6.3x7.7.svg"
   inkscape:version="1.1.1 (3bf5ae0d25, 2021-09-20)"
   xmlns:inkscape="http://www.inkscape.org/namespaces/inkscape"
   xmlns:sodipodi="http://sodipodi.sourceforge.net/DTD/sodipodi-0.dtd"
   xmlns="http://www.w3.org/2000/svg"
   xmlns:svg="http://www.w3.org/2000/svg">
  <defs
     id="defs182" />
  <sodipodi:namedview
     id="namedview180"
     pagecolor="#ffffff"
     bordercolor="#666666"
     borderopacity="1.0"
     inkscape:pageshadow="2"
     inkscape:pageopacity="0.0"
     inkscape:pagecheckerboard="0"
     inkscape:document-units="mm"
     showgrid="false"
     inkscape:zoom="21.575684"
     inkscape:cx="23.938986"
     inkscape:cy="12.398216"
     inkscape:window-width="1852"
     inkscape:window-height="1016"
     inkscape:window-x="68"
     inkscape:window-y="27"
     inkscape:window-maximized="1"
     inkscape:current-layer="svg178"
     showguides="true"
     inkscape:guide-bbox="true" />
  <title
     id="title2">Picture generated by PcbDraw </title>
  <desc
     id="desc4">Picture generated by PcbDraw</desc>
  <g
     id="substrate-copper"
     style="fill:#666666;stroke:#666666"
     transform="matrix(0.82867389,0,0,0.48148934,0,5.0000003e-6)">
    <g
       style="fill-opacity:1;stroke-linecap:round;stroke-linejoin:round;stroke-opacity:1"
       id="g6" />
    <g
       style="fill-opacity:0;stroke-width:-0.000393701;stroke-linecap:round;stroke-linejoin:round;stroke-opacity:1"
       id="g24">
      <g
         id="g8" />
      <g
         style="fill-opacity:0;stroke-width:0;stroke-linecap:round;stroke-linejoin:round;stroke-opacity:1"
         id="g10" />
      <g
         style="fill-opacity:1;stroke-width:0;stroke-linecap:round;stroke-linejoin:round;stroke-opacity:1"
         id="g16">
        <path
           style="fill-opacity:1;fill-rule:evenodd;stroke-width:0;stroke-linecap:round;stroke-linejoin:round;stroke-opacity:1"
           d="m 1663.19,-314.487 9.56,1.418 9.36,2.347 9.1,3.253 8.73,4.13 8.29,4.966 7.75,5.754 7.16,6.486 6.49,7.157 5.75,7.758 4.97,8.285 4.13,8.732 3.25,9.094 2.35,9.37 1.41,9.554 0.48,9.648 v 433.07 l -0.48,9.648 -1.41,9.554 -2.35,9.37 -3.25,9.094 -4.13,8.732 -4.97,8.285 -5.75,7.758 -6.49,7.157 -7.16,6.486 -7.75,5.754 -8.29,4.966 -8.73,4.13 -9.1,3.253 -9.36,2.347 -9.56,1.418 -9.65,0.474 H 472.441 l -9.647,-0.474 -9.555,-1.418 -9.369,-2.347 -9.095,-3.253 -8.731,-4.13 -8.285,-4.966 -7.758,-5.754 -7.157,-6.486 -6.487,-7.157 -5.753,-7.758 -4.966,-8.285 -4.13,-8.732 -3.254,-9.094 -2.347,-9.37 -1.417,-9.554 -0.474,-9.648 v -433.07 l 0.474,-9.648 1.417,-9.554 2.347,-9.37 3.254,-9.094 4.13,-8.732 4.966,-8.285 5.753,-7.758 6.487,-7.157 7.157,-6.486 7.758,-5.754 8.285,-4.966 8.731,-4.13 9.095,-3.253 9.369,-2.347 9.555,-1.418 9.647,-0.474 H 1653.54 Z"
           id="path12" />
        <path
           style="fill-opacity:1;fill-rule:evenodd;stroke-width:0;stroke-linecap:round;stroke-linejoin:round;stroke-opacity:1"
           d="m -462.794,-314.487 9.555,1.418 9.369,2.347 9.095,3.253 8.731,4.13 8.285,4.966 7.758,5.754 7.157,6.486 6.487,7.157 5.753,7.758 4.966,8.285 4.13,8.732 3.254,9.094 2.347,9.37 1.417,9.554 0.474,9.648 v 433.07 l -0.474,9.648 -1.417,9.554 -2.347,9.37 -3.254,9.094 -4.13,8.732 -4.966,8.285 -5.753,7.758 -6.487,7.157 -7.157,6.486 -7.758,5.754 -8.285,4.966 -8.731,4.13 -9.095,3.253 -9.369,2.347 -9.555,1.418 -9.647,0.474 H -1653.54 l -9.65,-0.474 -9.56,-1.418 -9.36,-2.347 -9.1,-3.253 -8.73,-4.13 -8.29,-4.966 -7.75,-5.754 -7.16,-6.486 -6.49,-7.157 -5.75,-7.758 -4.97,-8.285 -4.13,-8.732 -3.25,-9.094 -2.35,-9.37 -1.41,-9.554 -0.48,-9.648 v -433.07 l 0.48,-9.648 1.41,-9.554 2.35,-9.37 3.25,-9.094 4.13,-8.732 4.97,-8.285 5.75,-7.758 6.49,-7.157 7.16,-6.486 7.75,-5.754 8.29,-4.966 8.73,-4.13 9.1,-3.253 9.36,-2.347 9.56,-1.418 9.65,-0.474 h 1181.099 z"
           id="path14" />
      </g>
      <g
         id="g18" />
      <g
         id="g20" />
      <g
         id="g22" />
    </g>
    <g
       style="fill-opacity:1;stroke-width:0;stroke-linecap:round;stroke-linejoin:round;stroke-opacity:1"
       id="g26" />
    <g
       style="fill-opacity:1;stroke-width:0;stroke-linecap:round;stroke-linejoin:round;stroke-opacity:1"
       id="g28" />
  </g>
  <g
     style="fill:#000000;fill-opacity:1;stroke:#000000;stroke-linecap:round;stroke-linejoin:round;stroke-opacity:1"
     id="g70" />
  <g
     style="fill:#000000;fill-opacity:0;stroke:#000000;stroke-width:-0.000393701;stroke-linecap:round;stroke-linejoin:round;stroke-opacity:1"
     id="g72" />
  <path
     style="fill:#0c0c0c;fill-opacity:1;stroke:none;stroke-width:93.7458px;stroke-linecap:butt;stroke-linejoin:miter;stroke-opacity:1"
     d="m -1169.1001,-814.49994 354.59999,-354.59996 H 1169.0999 V 1169.1 H -814.50001 L -1169.1001,814.49992 V -814.49994"
     id="path4599" />
  <ellipse
     cx="0"
     cy="-2.8338533e-05"
     id="circle74"
     style="fill:#e4e4e4;fill-opacity:0.99052;stroke:#ffffff;stroke-width:35.4331;stroke-linecap:round;stroke-linejoin:round;stroke-opacity:1"
     rx="1116.0952"
     ry="1116.144" />
  <path
     id="circle74-3"
     style="fill:#3595f9;fill-opacity:1;stroke:#b3b3b3;stroke-width:39.3701;stroke-linecap:round;stroke-linejoin:round;stroke-opacity:1"
     sodipodi:type="arc"
     sodipodi:cx="0"
     sodipodi:cy="-2.8338533e-05"
     sodipodi:rx="1116.0952"
     sodipodi:ry="1116.144"
     sodipodi:start="4.956661"
     sodipodi:end="1.3343542"
     sodipodi:arc-type="arc"
     d="M 269.92765,-1083.0098 A 1116.0952,1116.144 0 0 1 1116.0867,4.3696046 1116.0952,1116.144 0 0 1 261.43998,1085.0901"
     sodipodi:open="true" />
  <g
     id="g92"
     style="fill:#000000;fill-opacity:0;stroke:#000000;stroke-width:39.3701;stroke-linecap:round;stroke-linejoin:round;stroke-opacity:1" />
  <g
     style="fill:#000000;fill-opacity:0;stroke:#000000;stroke-width:39.3701;stroke-linecap:round;stroke-linejoin:round;stroke-opacity:1"
     id="g96" />
  <g
     id="substrate-cmt"
     style="fill:#000000;stroke:#000000">
    <g
       style="fill-opacity:1;stroke-linecap:round;stroke-linejoin:round;stroke-opacity:1"
       id="g129" />
    <g
       style="fill-opacity:0;stroke-width:-0.000393701;stroke-linecap:round;stroke-linejoin:round;stroke-opacity:1"
       id="g135">
      <g
         id="g131" />
      <g
         id="g133" />
    </g>
  </g>
  <g
     id="substrate-edge"
     style="fill:#000000;stroke:#000000">
    <g
       style="fill-opacity:1;stroke-linecap:round;stroke-linejoin:round;stroke-opacity:1"
       id="g138" />
    <g
       style="fill-opacity:0;stroke-width:-0.000393701;stroke-linecap:round;stroke-linejoin:round;stroke-opacity:1"
       id="g144">
      <g
         id="g140" />
      <g
         id="g142" />
    </g>
  </g>
  <g
     inkscape:groupmode="layer"
     id="layer1"
     inkscape:label="Layer 1" />
  <rect
     id="origin"
     fill="red"
     width="393"
     height="393"
     x="0"
     y="0" />
  <text
     xml:space="preserve"
     style="font-style:normal;font-weight:normal;font-size:833.299px;line-height:1.25;font-family:sans-serif;font-variation-settings:normal;opacity:1;mix-blend-mode:multiply;vector-effect:none;fill:#3595f9;fill-opacity:1;stroke:none;stroke-width:39.3701;stroke-linecap:round;stroke-linejoin:round;stroke-miterlimit:4;stroke-dasharray:none;stroke-dashoffset:0;stroke-opacity:1;-inkscape-stroke:none;stop-color:#000000;stop-opacity:1"
     x="-679.19446"
     y="-196.90282"
     id="text3909"><tspan
       sodipodi:role="line"
       id="tspan3907"
       style="font-size:833.299px;font-variation-settings:normal;vector-effect:none;fill:#3595f9;fill-opacity:1;stroke:none;stroke-width:39.3701;stroke-linecap:round;stroke-linejoin:round;stroke-miterlimit:4;stroke-dasharray:none;stroke-dashoffset:0;stroke-opacity:1;-inkscape-stroke:none;stop-color:#000000;stop-opacity:1"
       x="-679.19446"
       y="-196.90282">~</tspan><tspan
       sodipodi:role="line"
       style="font-size:833.299px;font-variation-settings:normal;vector-effect:none;fill:#3595f9;fill-opacity:1;stroke:none;stroke-width:39.3701;stroke-linecap:round;stroke-linejoin:round;stroke-miterlimit:4;stroke-dasharray:none;stroke-dashoffset:0;stroke-opacity:1;-inkscape-stroke:none;stop-color:#000000;stop-opacity:1"
       x="-679.19446"
       y="844.72095"
       id="tspan22291" /></text>
  <text
     xml:space="preserve"
     style="font-style:normal;font-weight:normal;font-size:555.532px;line-height:1.25;font-family:sans-serif;font-variation-settings:normal;opacity:1;vector-effect:none;fill:#3595f9;fill-opacity:1;stroke:none;stroke-width:39.3701;stroke-linecap:round;stroke-linejoin:round;stroke-miterlimit:4;stroke-dasharray:none;stroke-dashoffset:0;stroke-opacity:1;-inkscape-stroke:none;stop-color:#000000;stop-opacity:1"
     x="-624.41779"
     y="424.76791"
     id="text28807"><tspan
       sodipodi:role="line"
       id="tspan28805"
       style="font-size:555.532px;font-variation-settings:normal;vector-effect:none;fill:#3595f9;fill-opacity:1;stroke:none;stroke-width:39.3701;stroke-linecap:round;stroke-linejoin:round;stroke-miterlimit:4;stroke-dasharray:none;stroke-dashoffset:0;stroke-opacity:1;-inkscape-stroke:none;stop-color:#000000;stop-opacity:1"
       x="-624.41779"
       y="424.76791">···</tspan></text>
</svg>
