<?xml version="1.0" encoding="UTF-8" standalone="no"?>
<svg
   version="1.1"
   width="7.395mm"
   height="5.9625mm"
   viewBox="-3.72 -3.6875 7.395 5.9625"
   id="svg907"
   sodipodi:docname="D_SMB.svg"
   inkscape:version="1.2.2 (b0a8486541, 2022-12-01)"
   xmlns:inkscape="http://www.inkscape.org/namespaces/inkscape"
   xmlns:sodipodi="http://sodipodi.sourceforge.net/DTD/sodipodi-0.dtd"
   xmlns="http://www.w3.org/2000/svg"
   xmlns:svg="http://www.w3.org/2000/svg">
  <defs
     id="defs911" />
  <sodipodi:namedview
     id="namedview909"
     pagecolor="#ffffff"
     bordercolor="#000000"
     borderopacity="0.25"
     inkscape:showpageshadow="2"
     inkscape:pageopacity="0.0"
     inkscape:pagecheckerboard="0"
     inkscape:deskcolor="#d1d1d1"
     inkscape:document-units="mm"
     showgrid="false"
     inkscape:zoom="31.99406"
     inkscape:cx="13.971344"
     inkscape:cy="11.267717"
     inkscape:window-width="1487"
     inkscape:window-height="941"
     inkscape:window-x="303"
     inkscape:window-y="57"
     inkscape:window-maximized="0"
     inkscape:current-layer="svg907" />
  <title
     id="title703">Picture generated by PcbDraw </title>
  <desc
     id="desc705">Picture generated by PcbDraw</desc>
  <g
     id="KiCAD footprint top">
    <g
       id="substrate-copper"
       style="fill:#bbbbbb;stroke:#d6d6d6;stroke-opacity:1;fill-opacity:1">
      <g
         style="fill-opacity:1;stroke-width:0;stroke-opacity:1;stroke-linecap:round;stroke-linejoin:round;stroke:#d6d6d6;fill:#bbbbbb"
         id="g725">
        <g
           style="fill-opacity:1;stroke-width:0;stroke-opacity:1;stroke-linecap:round;stroke-linejoin:round;stroke:#d6d6d6;fill:#bbbbbb"
           id="g717">
          <path
             style="fill-opacity:1;stroke-width:0;stroke-opacity:1;stroke-linecap:round;stroke-linejoin:round;fill-rule:evenodd;stroke:#d6d6d6;fill:#bbbbbb"
             d="M -3.4000,-0.9000 -3.3810,-0.9957 -3.3268,-1.0768 -3.2457,-1.1310 -3.1500,-1.1500 -1.1500,-1.1500 -1.0543,-1.1310 -0.9732,-1.0768 -0.9190,-0.9957 -0.9000,-0.9000 -0.9000,0.9000 -0.9190,0.9957 -0.9732,1.0768 -1.0543,1.1310 -1.1500,1.1500 -3.1500,1.1500 -3.2457,1.1310 -3.3268,1.0768 -3.3810,0.9957 -3.4000,0.9000 Z"
             id="path713" />
          <path
             style="fill-opacity:1;stroke-width:0;stroke-opacity:1;stroke-linecap:round;stroke-linejoin:round;fill-rule:evenodd;stroke:#d6d6d6;fill:#bbbbbb"
             d="M 0.9000,-0.9000 0.9190,-0.9957 0.9732,-1.0768 1.0543,-1.1310 1.1500,-1.1500 3.1500,-1.1500 3.2457,-1.1310 3.3268,-1.0768 3.3810,-0.9957 3.4000,-0.9000 3.4000,0.9000 3.3810,0.9957 3.3268,1.0768 3.2457,1.1310 3.1500,1.1500 1.1500,1.1500 1.0543,1.1310 0.9732,1.0768 0.9190,0.9957 0.9000,0.9000 Z"
             id="path715" />
        </g>
      </g>
    </g>
  </g>
  <rect
     style="fill:#333333;stroke-width:0.118994;stop-color:#000000"
     id="rect2054"
     width="5.258348"
     height="3.7118287"
     x="-2.6530414"
     y="-1.8389219" />
  <rect
     style="fill:#f2f2f2;stroke-width:0.141421;stop-color:#000000"
     id="rect2030"
     width="0.95147848"
     height="3.2006271"
     x="-2.3648043"
     y="-1.5832782" />
  <rect
     id="origin"
     fill="red"
     width="0.393"
     height="0.393"
     x="0"
     y="0" />
</svg>
